# xmcd
#
# Track frame offsets:
#	150
#	11428
#	23676
#	34284
#	48129
#	62993
#	79512
#	95887
#	111552
#	125052
#	138383
#	150411
#	163674
#	178864
#	193520
#	209142
#	220004
#	236998
#	251554
#	266159
#	280996
#	297252
#
# Disc length: 4156 seconds
#
# Revision: 0
# Processed by: cddbd v1.5.2PL0 Copyright (c) Steve Scherf et al.
# Submitted via: EasyCDDAExtractor 16.0.8.1
#
DISCID=52103a16
DTITLE=FERNANDO and SOROCABA - AS MELHORES
DYEAR=2017
DGENRE=SERTANEJO
TTITLE0=NOTÍCIA BOA
TTITLE1=MESA 30
TTITLE2=DOU TRABALHO, MAS NÃO TRAIO
TTITLE3=DEIXA BRILHAR
TTITLE4=AINDA EXISTEM COWBOYS
TTITLE5=CASA BRANCA
TTITLE6=SOFRER EM PAZ
TTITLE7=PRIMEIRO OI
TTITLE8=VISH
TTITLE9=DOUTOR
TTITLE10=CHURRASCO, SERTANEJO E VOCÊ
TTITLE11=É PRA DAR INVEJA
TTITLE12=POT-POURRI: CHEVETÃO, CELEBRIDADE
TTITLE13=MOTORISTA
TTITLE14=O AMOR PREVALECEU
TTITLE15=FOFOQUEIRA
TTITLE16=FICO COM VOCÊ
TTITLE17=LÁPIS E CANETA
TTITLE18=CAFOFO
TTITLE19=400 PRIMAVERAS
TTITLE20=TE CUIDO EM SILÊNCIO
TTITLE21=PRISIONEIRO
EXTD=
EXTT0=
EXTT1=
EXTT2=
EXTT3=
EXTT4=
EXTT5=
EXTT6=
EXTT7=
EXTT8=
EXTT9=
EXTT10=
EXTT11=
EXTT12=
EXTT13=
EXTT14=
EXTT15=
EXTT16=
EXTT17=
EXTT18=
EXTT19=
EXTT20=
EXTT21=
PLAYORDER=
